<svg width="25" height="31" viewBox="0 0 25 31" fill="none" xmlns="http://www.w3.org/2000/svg">
<path d="M12.5026 0.916992V9.66699C12.5026 10.4405 12.8099 11.1824 13.3569 11.7294C13.9039 12.2764 14.6457 12.5837 15.4193 12.5837H24.1693V27.167C24.1693 27.9405 23.862 28.6824 23.315 29.2294C22.768 29.7764 22.0262 30.0837 21.2526 30.0837H11.3214C12.8308 28.5124 13.7528 26.4692 13.9324 24.2978C14.1119 22.1265 13.538 19.9595 12.3071 18.1617C11.0763 16.3639 9.26371 15.045 7.17444 14.427C5.08517 13.8089 2.84676 13.9294 0.835938 14.7682V3.83366C0.835938 3.06011 1.14323 2.31825 1.69021 1.77126C2.23719 1.22428 2.97906 0.916992 3.7526 0.916992H12.5026Z" fill="white"/>
<path d="M13.9609 0.916992V10.2746C13.9609 10.5002 14.0506 10.7166 14.2101 10.8762C14.3443 11.0668 14.667 11.1217 14.8116 11.1253H24.1693L13.9609 0.916992Z" fill="white"/>
</svg>
