<svg width="19" height="16" viewBox="0 0 19 16" fill="none" xmlns="http://www.w3.org/2000/svg">
<path fill-rule="evenodd" clip-rule="evenodd" d="M16.3038 0.876219C16.5201 0.785212 16.7567 0.753824 16.9892 0.785322C17.2217 0.81682 17.4415 0.910054 17.6257 1.05532C17.8099 1.20058 17.9518 1.39257 18.0367 1.61129C18.1215 1.83001 18.1462 2.06748 18.1081 2.29897L16.1236 14.3363C15.9311 15.4975 14.6571 16.1633 13.5922 15.585C12.7015 15.1011 11.3785 14.3556 10.1885 13.5777C9.59347 13.1883 7.77084 11.9415 7.99484 11.0542C8.18734 10.2956 11.2498 7.44485 12.9998 5.74997C13.6867 5.0841 13.3735 4.69997 12.5623 5.31247C10.5481 6.83322 7.31409 9.14585 6.24484 9.79685C5.30159 10.3708 4.80984 10.4688 4.22184 10.3708C3.14909 10.1923 2.15421 9.91585 1.34221 9.57897C0.244964 9.12397 0.298339 7.61547 1.34134 7.17622L16.3038 0.876219Z" fill="currentColor"/>
</svg>
