<svg width="35" height="35" viewBox="0 0 35 35" fill="none" xmlns="http://www.w3.org/2000/svg">
<path d="M20.5026 1.91699V10.667C20.5026 11.4405 20.8099 12.1824 21.3569 12.7294C21.9039 13.2764 22.6457 13.5837 23.4193 13.5837H32.1693V28.167C32.1693 28.9405 31.862 29.6824 31.315 30.2294C30.768 30.7764 30.0262 31.0837 29.2526 31.0837H19.3214C20.8308 29.5124 21.7528 27.4692 21.9324 25.2978C22.1119 23.1265 21.538 20.9595 20.3071 19.1617C19.0763 17.3639 17.2637 16.045 15.1744 15.427C13.0852 14.8089 10.8468 14.9294 8.83594 15.7682V4.83366C8.83594 4.06011 9.14323 3.31825 9.69021 2.77126C10.2372 2.22428 10.9791 1.91699 11.7526 1.91699H20.5026Z" fill="white"/>
<path d="M21.9609 1.91699V11.2746C21.9609 11.5002 22.0506 11.7166 22.2101 11.8762C22.3443 12.0668 22.667 12.1217 22.8116 12.1253H32.1693L21.9609 1.91699Z" fill="white"/>
<path d="M12.4774 16.623C16.8402 16.623 20.3767 20.1596 20.3767 24.5224C20.3767 28.8851 16.8402 32.4217 12.4774 32.4217C11.0814 32.4241 9.70999 32.0546 8.50409 31.3513L4.5813 32.4217L5.64928 28.4973C4.94542 27.291 4.57569 25.919 4.57814 24.5224C4.57814 20.1596 8.11466 16.623 12.4774 16.623ZM9.78536 20.8097L9.62737 20.816C9.52523 20.823 9.42543 20.8499 9.33352 20.895C9.24787 20.9436 9.16966 21.0042 9.10128 21.0751C9.00649 21.1644 8.95277 21.2418 8.89511 21.3168C8.60293 21.6967 8.44562 22.1631 8.44801 22.6423C8.44959 23.0294 8.5507 23.4062 8.70868 23.7585C9.03177 24.471 9.56339 25.2254 10.2648 25.9245C10.4339 26.0927 10.5998 26.2618 10.7783 26.419C11.6499 27.1863 12.6886 27.7397 13.8116 28.0352L14.2603 28.1039C14.4065 28.1118 14.5526 28.1007 14.6995 28.0936C14.9295 28.0815 15.1541 28.0192 15.3575 27.9112C15.4609 27.8577 15.5618 27.7997 15.6601 27.7374C15.6601 27.7374 15.6935 27.7147 15.7588 27.6663C15.8655 27.5873 15.931 27.5312 16.0195 27.4388C16.0858 27.3703 16.1411 27.2908 16.1854 27.2002C16.247 27.0715 16.3086 26.8258 16.3339 26.6212C16.3528 26.4648 16.3473 26.3795 16.3449 26.3266C16.3418 26.242 16.2715 26.1543 16.1949 26.1172L15.7351 25.911C15.7351 25.911 15.0479 25.6117 14.6276 25.4205C14.5836 25.4014 14.5365 25.3904 14.4886 25.3881C14.4346 25.3825 14.3799 25.3885 14.3284 25.4058C14.2769 25.4231 14.2297 25.4513 14.19 25.4884C14.1861 25.4869 14.1331 25.5319 13.562 26.2239C13.5292 26.2679 13.4841 26.3012 13.4323 26.3195C13.3805 26.3378 13.3245 26.3402 13.2713 26.3266C13.2198 26.3128 13.1694 26.2954 13.1204 26.2744C13.0225 26.2333 12.9885 26.2175 12.9214 26.1891C12.4679 25.9916 12.0481 25.7242 11.6772 25.3968C11.5777 25.3099 11.4853 25.2151 11.3905 25.1235C11.0797 24.8258 10.8089 24.4892 10.5848 24.1219L10.5382 24.0468C10.5052 23.9961 10.4782 23.9418 10.4576 23.8849C10.4276 23.7688 10.5058 23.6755 10.5058 23.6755C10.5058 23.6755 10.6977 23.4654 10.787 23.3517C10.8739 23.2411 10.9473 23.1337 10.9947 23.057C11.088 22.9069 11.1172 22.7529 11.0682 22.6336C10.847 22.0933 10.6185 21.5559 10.3825 21.0214C10.3359 20.9155 10.1977 20.8397 10.0721 20.8247C10.0294 20.8194 9.98679 20.8152 9.94413 20.812C9.83807 20.806 9.73172 20.807 9.62579 20.8152L9.78536 20.8097Z" fill="white"/>
</svg>
