<svg width="19" height="19" viewBox="0 0 19 19" fill="none" xmlns="http://www.w3.org/2000/svg">
<path d="M9.50001 0.75C14.3326 0.75 18.25 4.66738 18.25 9.5C18.25 14.3326 14.3326 18.25 9.50001 18.25C7.95369 18.2525 6.43459 17.8433 5.09876 17.0644L0.753512 18.25L1.93651 13.903C1.15697 12.5668 0.747429 11.047 0.750012 9.5C0.750012 4.66738 4.66739 0.75 9.50001 0.75ZM6.51801 5.3875L6.34301 5.3945C6.22972 5.4014 6.11899 5.43116 6.01751 5.482C5.92259 5.53575 5.83595 5.60295 5.76026 5.6815C5.65526 5.78038 5.59576 5.86613 5.53189 5.94925C5.20824 6.37004 5.03399 6.88665 5.03664 7.4175C5.03839 7.84625 5.15039 8.26363 5.32539 8.65387C5.68326 9.44312 6.27214 10.2787 7.04914 11.0531C7.23639 11.2395 7.42014 11.4268 7.61789 11.6009C8.58335 12.4509 9.73386 13.0639 10.9779 13.3911L11.4749 13.4673C11.6368 13.476 11.7986 13.4637 11.9614 13.4559C12.2162 13.4427 12.465 13.3737 12.6903 13.2538C12.8048 13.1947 12.9167 13.1305 13.0254 13.0612C13.0254 13.0612 13.063 13.0367 13.1348 12.9825C13.2529 12.895 13.3255 12.8329 13.4235 12.7305C13.4961 12.6553 13.5591 12.5669 13.6073 12.4663C13.6755 12.3236 13.7438 12.0515 13.7718 11.8249C13.7928 11.6516 13.7866 11.5571 13.784 11.4985C13.7805 11.4049 13.7026 11.3077 13.6178 11.2666L13.1085 11.0382C13.1085 11.0382 12.3473 10.7066 11.8818 10.4949C11.8331 10.4736 11.7809 10.4614 11.7278 10.459C11.6679 10.4529 11.6074 10.4596 11.5504 10.4788C11.4933 10.4979 11.441 10.5291 11.397 10.5701C11.3926 10.5684 11.334 10.6182 10.7014 11.3848C10.6651 11.4335 10.6151 11.4704 10.5577 11.4907C10.5004 11.5109 10.4383 11.5137 10.3794 11.4985C10.3224 11.4832 10.2665 11.4639 10.2123 11.4408C10.1038 11.3953 10.0661 11.3777 9.99176 11.3462C9.48957 11.1271 9.02461 10.831 8.61364 10.4686C8.50339 10.3724 8.40101 10.2674 8.29601 10.1659C7.95178 9.8362 7.65177 9.46325 7.40351 9.05638L7.35189 8.97325C7.31481 8.91739 7.28483 8.85714 7.26264 8.79387C7.22939 8.66525 7.31601 8.562 7.31601 8.562C7.31601 8.562 7.52864 8.32925 7.62751 8.20325C7.72376 8.08075 7.80514 7.96175 7.85764 7.87688C7.96089 7.71063 7.99326 7.54 7.93901 7.40788C7.69401 6.80938 7.44026 6.2135 7.17951 5.622C7.12789 5.50475 6.97476 5.42075 6.83564 5.40412C6.78839 5.39887 6.74114 5.39362 6.69389 5.39012C6.57638 5.38429 6.45863 5.38546 6.34126 5.39363L6.51801 5.3875Z" fill="currentColor"/>
</svg>
