<svg width="21" height="15" viewBox="0 0 21 15" fill="none" xmlns="http://www.w3.org/2000/svg">
<path d="M8.58073 10.3753L13.5545 7.50033L8.58073 4.62533V10.3753ZM19.6591 2.87158C19.7836 3.32199 19.8699 3.92574 19.9274 4.69241C19.9945 5.45907 20.0232 6.12033 20.0232 6.69533L20.0807 7.50033C20.0807 9.59908 19.9274 11.142 19.6591 12.1291C19.4195 12.9916 18.8636 13.5474 18.0011 13.787C17.5507 13.9116 16.7266 13.9978 15.4616 14.0553C14.2157 14.1224 13.0753 14.1512 12.0211 14.1512L10.4974 14.2087C6.48198 14.2087 3.98073 14.0553 2.99365 13.787C2.13115 13.5474 1.57531 12.9916 1.33573 12.1291C1.21115 11.6787 1.1249 11.0749 1.0674 10.3082C1.00031 9.54158 0.971562 8.88033 0.971562 8.30533L0.914062 7.50033C0.914062 5.40158 1.0674 3.85866 1.33573 2.87158C1.57531 2.00908 2.13115 1.45324 2.99365 1.21366C3.44406 1.08908 4.26823 1.00283 5.53323 0.945325C6.77906 0.878242 7.91948 0.849492 8.97365 0.849492L10.4974 0.791992C14.5128 0.791992 17.0141 0.945326 18.0011 1.21366C18.8636 1.45324 19.4195 2.00908 19.6591 2.87158Z" fill="currentColor"/>
</svg>
