<svg width="12" height="12" viewBox="0 0 12 12" fill="none" xmlns="http://www.w3.org/2000/svg">
<path d="M0.000995259 4.12225C-0.0135058 4.38139 0.131505 4.62288 0.367304 4.73133L5.09843 6.90159L7.26855 11.6324C7.37194 11.8569 7.59639 12 7.84165 12L7.87759 11.9987C8.00413 11.9916 8.12559 11.9466 8.22614 11.8694C8.32668 11.7923 8.40164 11.6866 8.44124 11.5662L11.9688 0.827134C12.0425 0.601407 11.9833 0.35235 11.8156 0.184001C11.6479 0.0156511 11.3995 -0.0417265 11.1725 0.0307837L0.433505 3.55919C0.313071 3.59852 0.207333 3.67333 0.130152 3.77381C0.0529717 3.87428 0.00795196 3.99574 0.000995259 4.12225Z" fill="#858585"/>
</svg>
