<svg width="13" height="13" viewBox="0 0 13 13" fill="none" xmlns="http://www.w3.org/2000/svg">
<path d="M11.7263 8.86511L9.88811 8.65525C9.67198 8.62986 9.4529 8.65379 9.24734 8.72523C9.04178 8.79668 8.85508 8.91378 8.70128 9.06775L7.36971 10.3993C5.31532 9.35448 3.6455 7.68465 2.60067 5.63025L3.93947 4.29144C4.25065 3.98026 4.40263 3.54605 4.35197 3.1046L4.1421 1.28092C4.10107 0.92789 3.93165 0.602276 3.66609 0.366074C3.40053 0.129872 3.05738 -0.000421368 2.70198 1.02378e-06H1.45002C0.632259 1.02378e-06 -0.0479991 0.680263 0.00265842 1.49802C0.386208 7.67827 5.32894 12.6138 11.5019 12.9973C12.3197 13.048 12.9999 12.3677 12.9999 11.55V10.298C13.0072 9.56709 12.4572 8.95196 11.7263 8.86511Z" fill="#858585"/>
</svg>
