<svg width="21" height="13" viewBox="0 0 21 13" fill="none" xmlns="http://www.w3.org/2000/svg">
<path fill-rule="evenodd" clip-rule="evenodd" d="M20.5188 1.2045C20.664 0.72675 20.5188 0.375 19.8231 0.375H17.5263C16.9418 0.375 16.6722 0.678625 16.5261 1.01375C16.5261 1.01375 15.358 3.81025 13.7034 5.62675C13.1679 6.1535 12.9246 6.32063 12.6324 6.32063C12.4862 6.32063 12.2666 6.1535 12.2666 5.67488V1.2045C12.2666 0.6305 12.1056 0.375 11.6191 0.375H8.00712C7.64225 0.375 7.42262 0.641 7.42262 0.893875C7.42262 1.43725 8.25037 1.56325 8.33525 3.09275V6.416C8.33525 7.14488 8.20138 7.277 7.90912 7.277C7.13037 7.277 5.236 4.46737 4.11162 1.25262C3.89375 0.627 3.67325 0.375 3.08612 0.375H0.7875C0.13125 0.375 0 0.678625 0 1.01375C0 1.6105 0.77875 4.575 3.62687 8.49588C5.52563 11.1734 8.19875 12.625 10.6339 12.625C12.0942 12.625 12.2745 12.303 12.2745 11.7474V9.7235C12.2745 9.07862 12.4128 8.95 12.8756 8.95C13.2169 8.95 13.8005 9.118 15.1637 10.4086C16.7213 11.939 16.9776 12.625 17.8544 12.625H20.1513C20.8075 12.625 21.1365 12.303 20.9475 11.666C20.7393 11.0325 19.9955 10.1129 19.0094 9.02175C18.4739 8.4005 17.6706 7.73113 17.4265 7.396C17.0861 6.96638 17.1833 6.77475 17.4265 6.39237C17.4265 6.39237 20.2265 2.51962 20.5179 1.2045" fill="currentColor"/>
</svg>
