<svg width="89" height="45" viewBox="0 0 89 45" fill="none" xmlns="http://www.w3.org/2000/svg">
<path d="M0 4.9999H2.82034V6.65762C3.05093 6.28329 3.28152 5.97136 3.51212 5.72181C3.74271 5.47226 3.99991 5.27618 4.28372 5.13358C4.56753 4.97316 4.88681 4.8573 5.24157 4.786C5.59633 4.7147 6.01317 4.67014 6.4921 4.65231V7.59343C4.16842 7.68255 3.00659 8.95704 3.00659 11.4169V19.759H0V4.9999Z" fill="#28282C"/>
<path d="M22.8105 15.2403C22.5799 15.9533 22.2251 16.6129 21.7462 17.2189C21.285 17.8071 20.744 18.3151 20.1232 18.7429C19.5023 19.1707 18.8194 19.5094 18.0744 19.759C17.3294 19.9907 16.5578 20.1065 15.7596 20.1065C14.6421 20.1065 13.6045 19.9105 12.6466 19.5183C11.6888 19.1262 10.8551 18.5825 10.1456 17.8873C9.45378 17.1922 8.90391 16.3811 8.49593 15.4542C8.08796 14.5095 7.88397 13.4935 7.88397 12.4062C7.88397 11.3188 8.07909 10.3028 8.46933 9.3581C8.8773 8.41337 9.42718 7.59343 10.119 6.89825C10.8107 6.20308 11.6178 5.65942 12.5402 5.26727C13.4803 4.8573 14.4914 4.65231 15.5734 4.65231C16.6554 4.65231 17.6576 4.8573 18.58 5.26727C19.5201 5.65942 20.3272 6.20308 21.0012 6.89825C21.693 7.59343 22.234 8.42229 22.6242 9.38483C23.0145 10.3296 23.2096 11.3545 23.2096 12.4596C23.2096 12.7092 23.1918 12.9231 23.1564 13.1013C23.1386 13.2618 23.112 13.4489 23.0765 13.6628H11.0768C11.2542 14.7501 11.7597 15.6325 12.5934 16.3098C13.4448 16.9872 14.4736 17.3258 15.6798 17.3258C17.3649 17.3258 18.6509 16.6307 19.5378 15.2403H22.8105ZM20.203 10.9623C19.9369 9.83937 19.4048 8.97486 18.6066 8.36881C17.8084 7.74494 16.8062 7.433 15.6 7.433C14.4293 7.433 13.4448 7.74494 12.6466 8.36881C11.8484 8.97486 11.3074 9.83937 11.0236 10.9623H20.203Z" fill="#28282C"/>
<path d="M24.8771 12.4329C24.8771 11.3099 25.0633 10.2761 25.4358 9.33136C25.8261 8.36881 26.3493 7.54886 27.0056 6.87152C27.6797 6.17634 28.4779 5.63268 29.4003 5.24053C30.3404 4.84839 31.3514 4.65231 32.4335 4.65231C33.5687 4.65231 34.5443 4.8573 35.3602 5.26727C36.1762 5.65942 36.9034 6.30112 37.542 7.19237V4.9999H40.3623V19.759H37.542V17.62C36.8147 18.5112 36.0609 19.1529 35.2804 19.5451C34.4999 19.9194 33.551 20.1065 32.4335 20.1065C31.3337 20.1065 30.3226 19.9194 29.4003 19.5451C28.4779 19.1529 27.6797 18.6182 27.0056 17.9408C26.3316 17.2456 25.8083 16.4346 25.4358 15.5077C25.0633 14.563 24.8771 13.538 24.8771 12.4329ZM27.9103 12.4596C27.9103 13.1548 28.0256 13.8054 28.2562 14.4115C28.5045 14.9997 28.8415 15.5166 29.2672 15.9622C29.7107 16.39 30.2251 16.7287 30.8104 16.9783C31.4135 17.21 32.061 17.3258 32.7527 17.3258C33.4445 17.3258 34.0742 17.21 34.6418 16.9783C35.2272 16.7287 35.7327 16.39 36.1584 15.9622C36.5841 15.5166 36.9123 14.9908 37.1429 14.3847C37.3735 13.7787 37.4888 13.1192 37.4888 12.4062C37.4888 11.6753 37.3646 11.0069 37.1163 10.4009C36.8857 9.79481 36.5487 9.27789 36.1052 8.85009C35.6795 8.40446 35.1651 8.05688 34.562 7.80733C33.9767 7.55778 33.3292 7.433 32.6197 7.433C31.9457 7.433 31.316 7.56669 30.7306 7.83406C30.163 8.08361 29.6663 8.4312 29.2406 8.87682C28.8327 9.32245 28.5045 9.8572 28.2562 10.4811C28.0256 11.0871 27.9103 11.7466 27.9103 12.4596Z" fill="#28282C"/>
<path d="M43.3922 0H46.3988V19.759H43.3922V0Z" fill="#28282C"/>
<path d="M35.9865 32.6473H33.8047V29.8933H35.9865V24.8934H39.0197V29.8933H41.5207V32.6473H39.0197V44.6524H35.9865V32.6473Z" fill="#28282C"/>
<path d="M43.368 29.8933H46.3746V44.6524H43.368V29.8933ZM43.368 24.8934H46.3746V28.2356H43.368V24.8934Z" fill="#28282C"/>
<path d="M49.3962 29.8933H52.2165V31.3906C52.7486 30.7133 53.3074 30.2409 53.8927 29.9735C54.4958 29.6883 55.2408 29.5457 56.1277 29.5457C57.192 29.5457 58.07 29.7418 58.7618 30.134C59.4713 30.5261 60.0922 31.1589 60.6243 32.0323C61.2274 31.1767 61.9103 30.5529 62.673 30.1607C63.4358 29.7507 64.3581 29.5457 65.4402 29.5457C67.3736 29.5457 68.837 30.0983 69.8303 31.2035C70.8414 32.3086 71.3469 33.9218 71.3469 36.0429V44.6524H68.3137V36.4173C68.3137 33.69 67.276 32.3264 65.2007 32.3264C62.9834 32.3264 61.8748 33.8683 61.8748 36.952V44.6524H58.8682V36.3905C58.8682 33.6811 57.7951 32.3264 55.6488 32.3264C54.5313 32.3264 53.7065 32.7008 53.1743 33.4494C52.6599 34.1981 52.4027 35.3656 52.4027 36.952V44.6524H49.3962V29.8933Z" fill="#28282C"/>
<path d="M88.6021 40.1338C88.3715 40.8468 88.0168 41.5063 87.5379 42.1123C87.0767 42.7006 86.5357 43.2086 85.9148 43.6364C85.294 44.0642 84.6111 44.4028 83.8661 44.6524C83.1211 44.8841 82.3495 45 81.5513 45C80.4338 45 79.3961 44.8039 78.4383 44.4117C77.4804 44.0196 76.6467 43.4759 75.9372 42.7808C75.2454 42.0856 74.6956 41.2746 74.2876 40.3477C73.8796 39.4029 73.6756 38.3869 73.6756 37.2996C73.6756 36.2123 73.8707 35.1963 74.261 34.2515C74.669 33.3068 75.2188 32.4869 75.9106 31.7917C76.6024 31.0965 77.4095 30.5529 78.3318 30.1607C79.272 29.7507 80.283 29.5457 81.365 29.5457C82.4471 29.5457 83.4493 29.7507 84.3716 30.1607C85.3117 30.5529 86.1188 31.0965 86.7929 31.7917C87.4846 32.4869 88.0257 33.3157 88.4159 34.2783C88.8061 35.223 89.0012 36.2479 89.0012 37.3531C89.0012 37.6026 88.9835 37.8165 88.948 37.9948C88.9303 38.1552 88.9037 38.3424 88.8682 38.5563H76.8685C77.0458 39.6436 77.5514 40.5259 78.3851 41.2033C79.2365 41.8806 80.2653 42.2193 81.4715 42.2193C83.1566 42.2193 84.4426 41.5241 85.3295 40.1338H88.6021ZM85.9947 35.8558C85.7286 34.7328 85.1964 33.8683 84.3982 33.2622C83.6 32.6384 82.5978 32.3264 81.3916 32.3264C80.2209 32.3264 79.2365 32.6384 78.4383 33.2622C77.6401 33.8683 77.0991 34.7328 76.8153 35.8558H85.9947Z" fill="#28282C"/>
<rect y="34" width="22" height="11" rx="5.5" fill="#EEEEEE"/>
<circle cx="5.5" cy="39.5" r="5.5" fill="#C00000"/>
</svg>
