<svg width="89" height="45" viewBox="0 0 89 45" fill="none" xmlns="http://www.w3.org/2000/svg">
<path d="M0 4.9999H2.82034V6.65762C3.05093 6.28329 3.28152 5.97136 3.51212 5.72181C3.74271 5.47226 3.99991 5.27618 4.28372 5.13358C4.56753 4.97316 4.88681 4.8573 5.24157 4.786C5.59633 4.7147 6.01317 4.67014 6.4921 4.65231V7.59343C4.16842 7.68255 3.00659 8.95704 3.00659 11.4169V19.759H0V4.9999Z" fill="white"/>
<path d="M22.8105 15.2403C22.5799 15.9533 22.2251 16.6129 21.7462 17.2189C21.285 17.8071 20.744 18.3151 20.1232 18.7429C19.5023 19.1707 18.8194 19.5094 18.0744 19.759C17.3294 19.9907 16.5578 20.1065 15.7596 20.1065C14.6421 20.1065 13.6045 19.9105 12.6466 19.5183C11.6888 19.1262 10.8551 18.5825 10.1456 17.8873C9.45378 17.1922 8.90391 16.3811 8.49593 15.4542C8.08796 14.5095 7.88397 13.4935 7.88397 12.4062C7.88397 11.3188 8.07909 10.3028 8.46933 9.3581C8.8773 8.41337 9.42718 7.59343 10.119 6.89825C10.8107 6.20308 11.6178 5.65942 12.5402 5.26727C13.4803 4.8573 14.4914 4.65231 15.5734 4.65231C16.6554 4.65231 17.6576 4.8573 18.58 5.26727C19.5201 5.65942 20.3272 6.20308 21.0012 6.89825C21.693 7.59343 22.234 8.42229 22.6242 9.38483C23.0145 10.3296 23.2096 11.3545 23.2096 12.4596C23.2096 12.7092 23.1918 12.9231 23.1564 13.1013C23.1386 13.2618 23.112 13.4489 23.0765 13.6628H11.0768C11.2542 14.7501 11.7597 15.6325 12.5934 16.3098C13.4448 16.9872 14.4736 17.3258 15.6798 17.3258C17.3649 17.3258 18.6509 16.6307 19.5378 15.2403H22.8105ZM20.203 10.9623C19.9369 9.83937 19.4048 8.97486 18.6066 8.36881C17.8084 7.74494 16.8062 7.433 15.6 7.433C14.4293 7.433 13.4448 7.74494 12.6466 8.36881C11.8484 8.97486 11.3074 9.83937 11.0236 10.9623H20.203Z" fill="white"/>
<path d="M24.8771 12.4329C24.8771 11.3099 25.0633 10.2761 25.4358 9.33136C25.8261 8.36881 26.3493 7.54886 27.0056 6.87152C27.6797 6.17634 28.4779 5.63268 29.4003 5.24053C30.3404 4.84839 31.3514 4.65231 32.4335 4.65231C33.5687 4.65231 34.5443 4.8573 35.3602 5.26727C36.1762 5.65942 36.9034 6.30112 37.542 7.19237V4.9999H40.3623V19.759H37.542V17.62C36.8147 18.5112 36.0609 19.1529 35.2804 19.5451C34.4999 19.9194 33.551 20.1065 32.4335 20.1065C31.3337 20.1065 30.3226 19.9194 29.4003 19.5451C28.4779 19.1529 27.6797 18.6182 27.0056 17.9408C26.3316 17.2456 25.8083 16.4346 25.4358 15.5077C25.0633 14.563 24.8771 13.538 24.8771 12.4329ZM27.9103 12.4596C27.9103 13.1548 28.0256 13.8054 28.2562 14.4115C28.5045 14.9997 28.8415 15.5166 29.2672 15.9622C29.7107 16.39 30.2251 16.7287 30.8104 16.9783C31.4135 17.21 32.061 17.3258 32.7527 17.3258C33.4445 17.3258 34.0742 17.21 34.6418 16.9783C35.2272 16.7287 35.7327 16.39 36.1584 15.9622C36.5841 15.5166 36.9123 14.9908 37.1429 14.3847C37.3735 13.7787 37.4888 13.1192 37.4888 12.4062C37.4888 11.6753 37.3646 11.0069 37.1163 10.4009C36.8857 9.79481 36.5487 9.27789 36.1052 8.85009C35.6795 8.40446 35.1651 8.05688 34.562 7.80733C33.9767 7.55778 33.3292 7.433 32.6197 7.433C31.9457 7.433 31.316 7.56669 30.7306 7.83406C30.163 8.08361 29.6663 8.4312 29.2406 8.87682C28.8327 9.32245 28.5045 9.8572 28.2562 10.4811C28.0256 11.0871 27.9103 11.7466 27.9103 12.4596Z" fill="white"/>
<path d="M43.3922 0H46.3988V19.759H43.3922V0Z" fill="white"/>
<path d="M35.9865 32.6474H33.8047V29.8935H35.9865V24.8936H39.0197V29.8935H41.5207V32.6474H39.0197V44.6525H35.9865V32.6474Z" fill="white"/>
<path d="M43.368 29.8935H46.3746V44.6525H43.368V29.8935ZM43.368 24.8936H46.3746V28.2357H43.368V24.8936Z" fill="white"/>
<path d="M49.3962 29.8935H52.2165V31.3907C52.7486 30.7134 53.3074 30.241 53.8927 29.9737C54.4958 29.6885 55.2408 29.5459 56.1277 29.5459C57.192 29.5459 58.07 29.7419 58.7618 30.1341C59.4713 30.5262 60.0922 31.159 60.6243 32.0324C61.2274 31.1768 61.9103 30.553 62.673 30.1608C63.4358 29.7509 64.3581 29.5459 65.4402 29.5459C67.3736 29.5459 68.837 30.0984 69.8303 31.2036C70.8414 32.3087 71.3469 33.9219 71.3469 36.0431V44.6525H68.3137V36.4174C68.3137 33.6902 67.276 32.3266 65.2007 32.3266C62.9834 32.3266 61.8748 33.8684 61.8748 36.9521V44.6525H58.8682V36.3906C58.8682 33.6813 57.7951 32.3266 55.6488 32.3266C54.5313 32.3266 53.7065 32.7009 53.1743 33.4495C52.6599 34.1982 52.4027 35.3657 52.4027 36.9521V44.6525H49.3962V29.8935Z" fill="white"/>
<path d="M88.6021 40.1339C88.3715 40.8469 88.0168 41.5064 87.5379 42.1125C87.0767 42.7007 86.5357 43.2087 85.9148 43.6365C85.294 44.0643 84.6111 44.403 83.8661 44.6525C83.1211 44.8842 82.3495 45.0001 81.5513 45.0001C80.4338 45.0001 79.3961 44.804 78.4383 44.4119C77.4804 44.0197 76.6467 43.4761 75.9372 42.7809C75.2454 42.0857 74.6956 41.2747 74.2876 40.3478C73.8796 39.4031 73.6756 38.387 73.6756 37.2997C73.6756 36.2124 73.8707 35.1964 74.261 34.2517C74.669 33.3069 75.2188 32.487 75.9106 31.7918C76.6024 31.0966 77.4095 30.553 78.3318 30.1608C79.272 29.7509 80.283 29.5459 81.365 29.5459C82.4471 29.5459 83.4493 29.7509 84.3716 30.1608C85.3117 30.553 86.1188 31.0966 86.7929 31.7918C87.4846 32.487 88.0257 33.3158 88.4159 34.2784C88.8061 35.2231 89.0012 36.248 89.0012 37.3532C89.0012 37.6027 88.9835 37.8166 88.948 37.9949C88.9303 38.1553 88.9037 38.3425 88.8682 38.5564H76.8685C77.0458 39.6437 77.5514 40.526 78.3851 41.2034C79.2365 41.8807 80.2653 42.2194 81.4715 42.2194C83.1566 42.2194 84.4426 41.5242 85.3295 40.1339H88.6021ZM85.9947 35.8559C85.7286 34.7329 85.1964 33.8684 84.3982 33.2624C83.6 32.6385 82.5978 32.3266 81.3916 32.3266C80.2209 32.3266 79.2365 32.6385 78.4383 33.2624C77.6401 33.8684 77.0991 34.7329 76.8153 35.8559H85.9947Z" fill="white"/>
<rect y="34" width="22" height="11" rx="5.5" fill="white" fill-opacity="0.15"/>
<circle cx="16.5" cy="39.5" r="5.5" fill="#C00000"/>
</svg>
