<svg width="206" height="88" viewBox="0 0 206 88" fill="none" xmlns="http://www.w3.org/2000/svg">
<rect width="206" height="65" rx="32.5" fill="white"/>
<path d="M85 16.5555H87.5668V18.0658C87.7767 17.7248 87.9866 17.4406 88.1964 17.2132C88.4063 16.9858 88.6404 16.8072 88.8987 16.6773C89.157 16.5311 89.4476 16.4255 89.7705 16.3606C90.0933 16.2956 90.4727 16.255 90.9086 16.2388V18.9185C88.7938 18.9997 87.7364 20.1609 87.7364 22.4021V30.0026H85V16.5555Z" fill="#28282C"/>
<path d="M105.76 25.8856C105.55 26.5353 105.228 27.1362 104.792 27.6883C104.372 28.2243 103.88 28.6871 103.315 29.0769C102.749 29.4667 102.128 29.7752 101.45 30.0026C100.772 30.2137 100.07 30.3193 99.3432 30.3193C98.3261 30.3193 97.3817 30.1407 96.5099 29.7834C95.6382 29.4261 94.8794 28.9307 94.2337 28.2974C93.6041 27.664 93.1036 26.925 92.7323 26.0805C92.361 25.2198 92.1754 24.2941 92.1754 23.3034C92.1754 22.3127 92.3529 21.387 92.7081 20.5263C93.0794 19.6655 93.5799 18.9185 94.2095 18.2851C94.8391 17.6517 95.5736 17.1564 96.4131 16.7991C97.2687 16.4255 98.1889 16.2388 99.1736 16.2388C100.158 16.2388 101.071 16.4255 101.91 16.7991C102.766 17.1564 103.5 17.6517 104.114 18.2851C104.743 18.9185 105.236 19.6736 105.591 20.5506C105.946 21.4114 106.124 22.3452 106.124 23.3521C106.124 23.5795 106.107 23.7744 106.075 23.9368C106.059 24.0829 106.035 24.2535 106.002 24.4484H95.0812C95.2427 25.439 95.7028 26.2429 96.4615 26.8601C97.2364 27.4772 98.1727 27.7858 99.2705 27.7858C100.804 27.7858 101.975 27.1524 102.782 25.8856H105.76ZM103.387 21.9879C103.145 20.9648 102.661 20.1771 101.934 19.6249C101.208 19.0565 100.296 18.7723 99.1979 18.7723C98.1324 18.7723 97.2364 19.0565 96.5099 19.6249C95.7835 20.1771 95.2911 20.9648 95.0328 21.9879H103.387Z" fill="#28282C"/>
<path d="M107.641 23.3278C107.641 22.3046 107.811 21.3627 108.15 20.5019C108.505 19.6249 108.981 18.8779 109.578 18.2607C110.192 17.6273 110.918 17.132 111.758 16.7747C112.613 16.4174 113.534 16.2388 114.518 16.2388C115.552 16.2388 116.439 16.4255 117.182 16.7991C117.925 17.1564 118.587 17.741 119.168 18.553V16.5555H121.735V30.0026H119.168V28.0538C118.506 28.8658 117.82 29.4504 117.109 29.8077C116.399 30.1488 115.535 30.3193 114.518 30.3193C113.517 30.3193 112.597 30.1488 111.758 29.8077C110.918 29.4504 110.192 28.9632 109.578 28.3461C108.965 27.7127 108.489 26.9738 108.15 26.1292C107.811 25.2685 107.641 24.3347 107.641 23.3278ZM110.402 23.3521C110.402 23.9855 110.507 24.5783 110.717 25.1305C110.943 25.6664 111.249 26.1374 111.637 26.5434C112.04 26.9332 112.508 27.2417 113.041 27.4691C113.59 27.6802 114.179 27.7858 114.809 27.7858C115.439 27.7858 116.012 27.6802 116.528 27.4691C117.061 27.2417 117.521 26.9332 117.909 26.5434C118.296 26.1374 118.595 25.6583 118.804 25.1061C119.014 24.5539 119.119 23.953 119.119 23.3034C119.119 22.6375 119.006 22.0285 118.78 21.4763C118.57 20.9242 118.264 20.4532 117.86 20.0634C117.473 19.6574 117.004 19.3407 116.456 19.1133C115.923 18.886 115.334 18.7723 114.688 18.7723C114.074 18.7723 113.501 18.8941 112.969 19.1377C112.452 19.3651 112 19.6818 111.612 20.0878C111.241 20.4938 110.943 20.981 110.717 21.5494C110.507 22.1016 110.402 22.7025 110.402 23.3521Z" fill="#28282C"/>
<path d="M124.492 12H127.228V30.0026H124.492V12Z" fill="#28282C"/>
<path d="M117.747 41.7453H115.762V39.2362H117.747V34.6807H120.508V39.2362H122.784V41.7453H120.508V52.6833H117.747V41.7453Z" fill="#28282C"/>
<path d="M124.465 39.2362H127.202V52.6833H124.465V39.2362ZM124.465 34.6807H127.202V37.7258H124.465V34.6807Z" fill="#28282C"/>
<path d="M129.952 39.2362H132.519V40.6004C133.003 39.9832 133.512 39.5528 134.044 39.3092C134.593 39.0494 135.271 38.9195 136.078 38.9195C137.047 38.9195 137.846 39.0981 138.476 39.4554C139.121 39.8127 139.686 40.3892 140.171 41.185C140.72 40.4055 141.341 39.8371 142.035 39.4798C142.73 39.1062 143.569 38.9195 144.554 38.9195C146.313 38.9195 147.645 39.4229 148.549 40.4298C149.47 41.4367 149.93 42.9065 149.93 44.8391V52.6833H147.169V45.1802C147.169 42.6954 146.225 41.453 144.336 41.453C142.318 41.453 141.309 42.8578 141.309 45.6674V52.6833H138.573V45.1558C138.573 42.6873 137.596 41.453 135.642 41.453C134.625 41.453 133.875 41.794 133.39 42.4761C132.922 43.1582 132.688 44.222 132.688 45.6674V52.6833H129.952V39.2362Z" fill="#28282C"/>
<path d="M165.634 48.5663C165.424 49.216 165.101 49.8169 164.665 50.369C164.246 50.905 163.753 51.3678 163.188 51.7576C162.623 52.1474 162.002 52.4559 161.324 52.6833C160.646 52.8944 159.943 53 159.217 53C158.2 53 157.255 52.8214 156.384 52.4641C155.512 52.1068 154.753 51.6114 154.107 50.9781C153.478 50.3447 152.977 49.6057 152.606 48.7612C152.235 47.9005 152.049 46.9748 152.049 45.9841C152.049 44.9934 152.227 44.0677 152.582 43.207C152.953 42.3462 153.454 41.5992 154.083 40.9658C154.713 40.3324 155.447 39.8371 156.287 39.4798C157.142 39.1062 158.063 38.9195 159.047 38.9195C160.032 38.9195 160.944 39.1062 161.784 39.4798C162.639 39.8371 163.374 40.3324 163.987 40.9658C164.617 41.5992 165.109 42.3543 165.464 43.2313C165.82 44.0921 165.997 45.0259 165.997 46.0328C165.997 46.2602 165.981 46.4551 165.949 46.6175C165.933 46.7636 165.908 46.9342 165.876 47.1291H154.955C155.116 48.1197 155.576 48.9236 156.335 49.5408C157.11 50.1579 158.046 50.4665 159.144 50.4665C160.678 50.4665 161.848 49.8331 162.655 48.5663H165.634ZM163.261 44.6686C163.019 43.6455 162.534 42.8578 161.808 42.3056C161.081 41.7372 160.169 41.453 159.072 41.453C158.006 41.453 157.11 41.7372 156.384 42.3056C155.657 42.8578 155.165 43.6455 154.906 44.6686H163.261Z" fill="#28282C"/>
<circle cx="32.5" cy="32.5" r="32.5" fill="#C00000"/>
<path d="M22 24.3911H25.4754V26.2566C25.7596 25.8354 26.0437 25.4844 26.3279 25.2035C26.612 24.9227 26.929 24.7021 27.2787 24.5416C27.6284 24.3611 28.0219 24.2307 28.459 24.1504C28.8962 24.0702 29.4098 24.0201 30 24V27.3097C27.1366 27.41 25.7049 28.8442 25.7049 31.6124V41H22V24.3911Z" fill="white"/>
<path d="M36.5448 28.8484H34V26.0609H36.5448V21H40.0828V26.0609H43V28.8484H40.0828V41H36.5448V28.8484Z" fill="white"/>
<path d="M103 88L110 73H96L103 88Z" fill="#C00000"/>
</svg>
