<svg width="253" height="80" viewBox="0 0 253 80" fill="none" xmlns="http://www.w3.org/2000/svg">
<rect width="252.998" height="80" rx="40" fill="white"/>
<path d="M104.406 20.376H107.559V22.2349C107.816 21.8152 108.074 21.4654 108.332 21.1855C108.59 20.9057 108.877 20.6858 109.194 20.5259C109.512 20.346 109.869 20.2161 110.265 20.1362C110.662 20.0562 111.128 20.0062 111.663 19.9862V23.2843C109.066 23.3843 107.767 24.8134 107.767 27.5718V36.9263H104.406V20.376Z" fill="#28282C"/>
<path d="M129.903 31.8593C129.645 32.6588 129.249 33.3984 128.713 34.078C128.198 34.7376 127.593 35.3073 126.899 35.787C126.205 36.2667 125.442 36.6465 124.609 36.9263C123.776 37.1862 122.914 37.3161 122.022 37.3161C120.773 37.3161 119.613 37.0963 118.542 36.6565C117.472 36.2168 116.54 35.6071 115.747 34.8276C114.973 34.048 114.359 33.1386 113.903 32.0992C113.447 31.0398 113.219 29.9005 113.219 28.6812C113.219 27.4619 113.437 26.3225 113.873 25.2632C114.329 24.2038 114.944 23.2843 115.717 22.5048C116.49 21.7252 117.392 21.1156 118.423 20.6758C119.474 20.2161 120.604 19.9862 121.814 19.9862C123.023 19.9862 124.143 20.2161 125.174 20.6758C126.225 21.1156 127.127 21.7252 127.881 22.5048C128.654 23.2843 129.259 24.2138 129.695 25.2931C130.131 26.3525 130.349 27.5019 130.349 28.7411C130.349 29.021 130.329 29.2608 130.29 29.4607C130.27 29.6406 130.24 29.8505 130.2 30.0903H116.787C116.986 31.3096 117.551 32.2991 118.483 33.0586C119.434 33.8182 120.584 34.1979 121.933 34.1979C123.816 34.1979 125.254 33.4184 126.245 31.8593H129.903ZM126.988 27.0621C126.691 25.8028 126.096 24.8334 125.204 24.1538C124.312 23.4542 123.192 23.1044 121.843 23.1044C120.535 23.1044 119.434 23.4542 118.542 24.1538C117.65 24.8334 117.045 25.8028 116.728 27.0621H126.988Z" fill="#28282C"/>
<path d="M132.213 28.7111C132.213 27.4519 132.421 26.2926 132.837 25.2332C133.274 24.1538 133.859 23.2343 134.592 22.4748C135.346 21.6952 136.238 21.0856 137.269 20.6459C138.32 20.2061 139.45 19.9862 140.659 19.9862C141.928 19.9862 143.019 20.2161 143.931 20.6758C144.843 21.1156 145.656 21.8352 146.369 22.8346V20.376H149.522V36.9263H146.369V34.5278C145.556 35.5272 144.714 36.2467 143.841 36.6865C142.969 37.1062 141.908 37.3161 140.659 37.3161C139.43 37.3161 138.3 37.1062 137.269 36.6865C136.238 36.2467 135.346 35.6471 134.592 34.8875C133.839 34.108 133.254 33.1985 132.837 32.1591C132.421 31.0998 132.213 29.9504 132.213 28.7111ZM135.603 28.7411C135.603 29.5207 135.732 30.2502 135.99 30.9299C136.267 31.5895 136.644 32.1691 137.12 32.6688C137.616 33.1486 138.191 33.5283 138.845 33.8082C139.519 34.068 140.243 34.1979 141.016 34.1979C141.789 34.1979 142.493 34.068 143.128 33.8082C143.782 33.5283 144.347 33.1486 144.823 32.6688C145.299 32.1691 145.665 31.5795 145.923 30.8999C146.181 30.2203 146.31 29.4807 146.31 28.6812C146.31 27.8616 146.171 27.1121 145.893 26.4325C145.636 25.7529 145.259 25.1732 144.763 24.6935C144.287 24.1938 143.712 23.804 143.038 23.5242C142.384 23.2443 141.66 23.1044 140.867 23.1044C140.114 23.1044 139.41 23.2543 138.756 23.5542C138.121 23.834 137.566 24.2238 137.09 24.7235C136.634 25.2232 136.267 25.8228 135.99 26.5224C135.732 27.202 135.603 27.9416 135.603 28.7411Z" fill="#28282C"/>
<path d="M152.908 14.7693H156.269V36.9263H152.908V14.7693Z" fill="#28282C"/>
<path d="M144.626 51.379H142.188V48.2908H144.626V42.6841H148.017V48.2908H150.812V51.379H148.017V64.8411H144.626V51.379Z" fill="#28282C"/>
<path d="M152.877 48.2908H156.238V64.8411H152.877V48.2908ZM152.877 42.6841H156.238V46.4319H152.877V42.6841Z" fill="#28282C"/>
<path d="M159.615 48.2908H162.768V49.9698C163.362 49.2103 163.987 48.6806 164.641 48.3808C165.315 48.0609 166.148 47.901 167.139 47.901C168.329 47.901 169.31 48.1209 170.084 48.5606C170.877 49.0004 171.571 49.71 172.165 50.6894C172.84 49.73 173.603 49.0304 174.455 48.5906C175.308 48.1309 176.339 47.901 177.548 47.901C179.71 47.901 181.345 48.5207 182.456 49.76C183.586 50.9992 184.151 52.8082 184.151 55.1868V64.8411H180.76V55.6065C180.76 52.5483 179.6 51.0192 177.281 51.0192C174.802 51.0192 173.563 52.7482 173.563 56.2062V64.8411H170.203V55.5766C170.203 52.5383 169.003 51.0192 166.604 51.0192C165.355 51.0192 164.433 51.439 163.838 52.2785C163.263 53.118 162.976 54.4272 162.976 56.2062V64.8411H159.615V48.2908Z" fill="#28282C"/>
<path d="M203.438 59.7741C203.18 60.5736 202.784 61.3132 202.248 61.9928C201.733 62.6524 201.128 63.2221 200.434 63.7018C199.74 64.1815 198.977 64.5613 198.144 64.8411C197.312 65.101 196.449 65.2309 195.557 65.2309C194.308 65.2309 193.148 65.011 192.077 64.5713C191.007 64.1316 190.075 63.5219 189.282 62.7424C188.508 61.9628 187.894 61.0534 187.438 60.014C186.982 58.9546 186.754 57.8152 186.754 56.596C186.754 55.3767 186.972 54.2373 187.408 53.178C187.864 52.1186 188.479 51.1991 189.252 50.4196C190.025 49.64 190.927 49.0304 191.958 48.5906C193.009 48.1309 194.139 47.901 195.349 47.901C196.558 47.901 197.678 48.1309 198.709 48.5906C199.76 49.0304 200.662 49.64 201.416 50.4196C202.189 51.1991 202.794 52.1286 203.23 53.2079C203.666 54.2673 203.884 55.4166 203.884 56.6559C203.884 56.9358 203.864 57.1756 203.825 57.3755C203.805 57.5554 203.775 57.7653 203.735 58.0051H190.323C190.521 59.2244 191.086 60.2138 192.018 60.9734C192.969 61.733 194.119 62.1127 195.468 62.1127C197.351 62.1127 198.789 61.3332 199.78 59.7741H203.438ZM200.523 54.9769C200.226 53.7176 199.631 52.7482 198.739 52.0686C197.847 51.369 196.727 51.0192 195.378 51.0192C194.07 51.0192 192.969 51.369 192.077 52.0686C191.185 52.7482 190.58 53.7176 190.263 54.9769H200.523Z" fill="#28282C"/>
<ellipse cx="39.9148" cy="40" rx="39.9148" ry="40" fill="#C00000"/>
<path d="M27.0156 30.02H31.2839V32.316C31.6329 31.7975 31.9819 31.3655 32.3309 31.0199C32.6799 30.6742 33.0691 30.4027 33.4986 30.2051C33.9282 29.983 34.4114 29.8225 34.9483 29.7237C35.4851 29.625 36.116 29.5633 36.8408 29.5386V33.6121C33.3241 33.7355 31.5658 35.5007 31.5658 38.9077V50.4617H27.0156V30.02Z" fill="white"/>
<path d="M44.8754 35.5058H41.75V32.075H44.8754V25.8462H49.2205V32.075H52.8033V35.5058H49.2205V50.4616H44.8754V35.5058Z" fill="white"/>
</svg>
