<svg width="131" height="30" viewBox="0 0 131 30" fill="none" xmlns="http://www.w3.org/2000/svg">
<g clip-path="url(#clip0_260_1241)">
<path d="M38.2393 25.3142L38.2109 25.3425V29.2392L38.2393 29.2674H39.441C40.6598 29.2674 41.5384 28.3921 41.5384 27.2908C41.5384 26.1896 40.6598 25.3142 39.441 25.3142H38.2393ZM38.6474 25.7491H39.441C40.365 25.7491 41.0339 26.4268 41.0339 27.2908C41.0339 28.1549 40.365 28.8326 39.441 28.8326H38.6474V25.7491ZM42.9191 25.3142L42.8908 25.3425V29.2392L42.9191 29.2674H43.2989L43.3273 29.2392V25.3425L43.2989 25.3142H42.9191ZM48.2704 26.0936V25.5966C47.9019 25.3199 47.3918 25.2295 46.8532 25.2295C45.6345 25.2295 44.6992 26.1613 44.6992 27.2908C44.6992 28.4486 45.6629 29.3521 46.8816 29.3521C47.3918 29.3521 47.9019 29.211 48.327 28.9004V27.1271L48.2987 27.0988H46.9949L46.9666 27.1271V27.5111L46.9949 27.5393H47.8905V28.6406C47.5901 28.8157 47.2103 28.8948 46.8816 28.8948C45.9293 28.8948 45.198 28.2 45.198 27.2908C45.198 26.3986 45.9009 25.687 46.8532 25.687C47.335 25.687 47.8622 25.7886 48.242 26.1218L48.2704 26.0936ZM49.8376 25.3142L49.8092 25.3425V29.2392L49.8376 29.2674H50.2174L50.2457 29.2392V25.3425L50.2174 25.3142H49.8376ZM51.4986 25.3142L51.4703 25.3425V25.7209L51.4986 25.7491H52.8364V29.2392L52.8647 29.2674H53.2502L53.2785 29.2392V25.7491H54.6163L54.6446 25.7209V25.3425L54.6163 25.3142H51.4986ZM56.3962 25.3142L56.3679 25.3425L54.792 29.2392L54.8204 29.2674H55.2398L55.2681 29.2392L55.6876 28.2058H57.5016L57.9267 29.2392L57.9551 29.2674H58.3745L58.4029 29.2392L56.8213 25.3425L56.793 25.3142H56.3962ZM56.5946 25.9128L57.3315 27.7709H55.8633L56.5946 25.9128ZM59.5703 25.3142L59.5475 25.3368V29.2449L59.5703 29.2674H61.832L61.8547 29.2449V28.8609L61.832 28.8326H59.9841V25.3368L59.9614 25.3142H59.5703ZM62.8823 27.72L62.854 27.7483V28.1323L62.8823 28.1606H64.6396L64.6679 28.1323V27.7483L64.6396 27.72H62.8823ZM67.1586 25.3142L67.1302 25.3425L65.5544 29.2392L65.5828 29.2674H66.0022L66.0306 29.2392L66.4501 28.2058H68.264L68.6891 29.2392L68.7174 29.2674H69.1369L69.1652 29.2392L67.5838 25.3425L67.5554 25.3142H67.1586ZM67.357 25.9128L68.0939 27.7709H66.6258L67.357 25.9128ZM70.3384 25.3142L70.31 25.3425V29.2392L70.3384 29.2674H70.7181L70.7465 29.2392V25.7491H72.5888L72.6171 25.7209V25.3425L72.5888 25.3142H70.3384ZM73.8723 25.3142L73.8439 25.3425V29.2392L73.8723 29.2674H76.2928L76.3211 29.2392V28.8609L76.2928 28.8326H74.2804V27.3134H75.6693L75.6975 27.2852V26.9011L75.6693 26.873H74.2804V25.7491H76.1227L76.1511 25.7209V25.3425L76.1227 25.3142H73.8723ZM77.6332 25.3142L77.6049 25.3425V29.2392L77.6332 29.2674H78.013L78.0414 29.2392V27.3134H80.3258V29.2392L80.3541 29.2674H80.7337L80.762 29.2392V25.3425L80.7337 25.3142H80.3541L80.3258 25.3425V26.873H78.0414V25.3425L78.013 25.3142H77.6332ZM82.0123 25.3142L81.984 25.3425V25.7209L82.0123 25.7491H83.3498V29.2392L83.3781 29.2674H83.7639L83.7922 29.2392V25.7491H85.1298L85.1581 25.7209V25.3425L85.1298 25.3142H82.0123ZM89.184 26.1501V25.6531C88.8155 25.3876 88.362 25.2295 87.8237 25.2295C86.6614 25.2295 85.7262 26.1613 85.7262 27.2908C85.7262 28.4204 86.6614 29.3521 87.8237 29.3521C88.362 29.3521 88.8155 29.1941 89.184 28.9286V28.4316L89.1557 28.4034C88.7762 28.714 88.3054 28.8948 87.8237 28.8948C86.9451 28.8948 86.2253 28.1831 86.2253 27.2908C86.2253 26.3986 86.9451 25.687 87.8237 25.687C88.3054 25.687 88.7762 25.8677 89.1557 26.1783L89.184 26.1501ZM90.3204 25.3142L90.2921 25.3425V25.7209L90.3204 25.7491H91.6579V29.2392L91.6862 29.2674H92.0721L92.1004 29.2392V25.7491H93.4379L93.4662 25.7209V25.3425L93.4379 25.3142H90.3204ZM94.7196 25.3142L94.6913 25.3425V29.2392L94.7196 29.2674H96.0124C96.777 29.2674 97.3444 28.7535 97.3444 28.0759C97.3444 27.5789 97.0607 27.1723 96.443 27.0029C96.6922 26.8616 96.8619 26.6414 96.8619 26.3082C96.8619 25.7096 96.4147 25.3142 95.621 25.3142H94.7196ZM95.1275 25.7491H95.621C96.1365 25.7491 96.3637 25.9637 96.3637 26.3082C96.3637 26.6979 96.0855 26.9011 95.621 26.9011H95.1275V25.7491ZM95.1275 27.3417H96.0124C96.5224 27.3417 96.8454 27.6467 96.8454 28.0759C96.8454 28.5276 96.5224 28.8326 96.0124 28.8326H95.1275V27.3417ZM100.568 25.2295C99.4112 25.2295 98.4706 26.1557 98.4706 27.2908C98.4706 28.426 99.4112 29.3521 100.568 29.3521C101.724 29.3521 102.665 28.426 102.665 27.2908C102.665 26.1557 101.724 25.2295 100.568 25.2295ZM100.568 25.687C101.447 25.687 102.16 26.4042 102.16 27.2908C102.16 28.1775 101.447 28.8948 100.568 28.8948C99.6894 28.8948 98.9688 28.1775 98.9688 27.2908C98.9688 26.4042 99.6894 25.687 100.568 25.687Z" fill="white"/>
<path fill-rule="evenodd" clip-rule="evenodd" d="M14.5384 0.0292969C16.1108 0.0292969 17.6248 0.277967 19.0431 0.737992L16.2904 5.60251H19.5436L21.5903 1.84426C26.0554 4.31641 29.0769 9.0635 29.0769 14.5137C29.0769 22.5133 22.5678 28.9981 14.5384 28.9981C6.50908 28.9981 0 22.5133 0 14.5137C0 6.51416 6.50908 0.0292969 14.5384 0.0292969ZM13.1813 8.27625L13.2649 8.19295H15.6073L15.6909 8.27625L20.1247 19.7778L20.041 19.8612H17.4477L17.364 19.7778L16.5275 17.4442H12.3447L11.5082 19.7778L11.4245 19.8612H8.8312L8.7475 19.7778L13.1813 8.27625ZM15.7746 15.1105L14.4361 11.1933L13.0976 15.1105H15.7746Z" fill="white" fill-opacity="0.3"/>
<path d="M41.9347 0.0292969C43.3052 0.0292969 44.3533 0.34876 45.0794 0.987351C45.8052 1.62594 46.1683 2.58977 46.1683 3.87821V9.18533H44.1124V8.08326C43.8452 8.47888 43.4649 8.78117 42.9713 8.99029C42.4777 9.1995 41.8824 9.3041 41.1856 9.3041C40.4887 9.3041 39.879 9.18822 39.3563 8.95655C38.8337 8.72472 38.4302 8.40254 38.1455 7.99001C37.861 7.57732 37.7188 7.11124 37.7188 6.59105C37.7188 5.77726 38.0293 5.12452 38.6507 4.63269C39.2722 4.14107 40.2508 3.89525 41.5862 3.89525H43.9906V3.75956C43.9906 3.12659 43.796 2.64058 43.4067 2.30135C43.0177 1.96228 42.4399 1.79266 41.6734 1.79266C41.1508 1.79266 40.6369 1.87192 40.1315 2.03013C39.6264 2.18832 39.1996 2.40874 38.8512 2.69138L37.9974 1.14844C38.4853 0.786706 39.0718 0.509686 39.757 0.317717C40.4424 0.125442 41.1681 0.0292969 41.9347 0.0292969ZM41.6385 7.761C42.1843 7.761 42.6694 7.63949 43.0933 7.39654C43.5173 7.15351 43.8162 6.80589 43.9906 6.35382V5.30248H41.7431C40.4887 5.30248 39.8616 5.7039 39.8616 6.50641C39.8616 6.8906 40.0183 7.19595 40.3319 7.42198C40.6455 7.64802 41.0812 7.761 41.6385 7.761ZM52.7361 5.55686H51.0462V9.18533H48.8686V0.131236H51.0462V3.79348H52.7883L55.541 0.131236H57.8755L54.4957 4.48866L58.102 9.18533H55.541L52.7361 5.55686ZM69.5241 7.38801L70.1663 9.17342L67.8059 9.18533H59.6349V0.131236H61.8127V7.38801H66.2552V0.131236H68.4328V7.38801H69.5241ZM80.4885 4.70905C80.4885 4.85605 80.4775 5.06525 80.4539 5.33646H73.1542C73.2819 6.00353 73.616 6.53178 74.156 6.92184C74.696 7.31183 75.3669 7.50686 76.1682 7.50686C77.19 7.50686 78.032 7.17888 78.6944 6.5234L79.8614 7.82888C79.4433 8.31509 78.9152 8.68229 78.276 8.9311C77.6371 9.17969 76.9173 9.3041 76.116 9.3041C75.0935 9.3041 74.1934 9.10617 73.4155 8.71055C72.6369 8.31509 72.0362 7.76397 71.6125 7.05745C71.1881 6.35108 70.9763 5.55123 70.9763 4.65812C70.9763 3.77644 71.1828 2.98238 71.5951 2.27595C72.0067 1.56951 72.5789 1.01837 73.3106 0.622711C74.0424 0.227209 74.8671 0.0292969 75.7845 0.0292969C76.6908 0.0292969 77.5007 0.22432 78.2151 0.614193C78.9293 1.00439 79.4865 1.55246 79.8881 2.25906C80.2881 2.9655 80.4885 3.78222 80.4885 4.70905ZM75.7845 1.72498C75.0876 1.72498 74.4982 1.92562 74.0163 2.32675C73.5345 2.7282 73.2411 3.26229 73.1368 3.92917H78.4156C78.322 3.27354 78.038 2.74219 77.5615 2.33527C77.0857 1.92835 76.4929 1.72498 75.7845 1.72498ZM82.8751 0.131236H85.0528V3.81052H89.7388V0.131236H91.9173V9.18533H89.7388V5.60775H85.0528V9.18533H82.8751V0.131236ZM102.22 1.92835H98.9554V9.18533H96.777V1.92835H93.5023V0.131236H102.207L102.22 1.92835Z" fill="white"/>
<path d="M128.49 20.6916H125.5L128.25 13.543H131.24L128.49 20.6916Z" fill="white" fill-opacity="0.3"/>
<path d="M38.3906 13.4028H40.3213V15.9997H43.2359V13.4028H45.1791V20.056H43.2359V17.5703H40.3213V20.056H38.3906V13.4028ZM49.6384 13.304C50.6765 13.304 51.4737 13.5492 52.0301 14.0398C52.5866 14.5303 52.8647 15.2702 52.8647 16.2595V20.056H51.0461V19.2275C50.6806 19.8457 49.9997 20.1549 49.0032 20.1549C48.4885 20.1549 48.0422 20.0683 47.6643 19.8952C47.2864 19.7221 46.9979 19.483 46.7985 19.1779C46.5993 18.8729 46.4996 18.5267 46.4996 18.1392C46.4996 17.5209 46.7342 17.0344 47.2034 16.6798C47.6727 16.3254 48.3972 16.1482 49.377 16.1482H50.9215C50.9215 15.7279 50.7929 15.404 50.5353 15.1775C50.2778 14.9506 49.8917 14.8374 49.377 14.8374C49.0199 14.8374 48.6691 14.893 48.3245 15.0044C47.9797 15.1155 47.6872 15.2661 47.4463 15.4556L46.7487 14.1078C47.1141 13.8521 47.5521 13.6542 48.0628 13.5142C48.5736 13.374 49.0989 13.304 49.6384 13.304ZM49.4889 18.8566C49.8214 18.8566 50.1159 18.7802 50.3735 18.6277C50.6309 18.4752 50.8135 18.2504 50.9215 17.9537V17.2736H49.5887C48.7915 17.2736 48.3931 17.5332 48.3931 18.0527C48.3931 18.3001 48.4905 18.4956 48.6856 18.6402C48.8809 18.7844 49.1486 18.8566 49.4889 18.8566ZM62.0323 13.304C62.6551 13.304 63.2219 13.4462 63.7325 13.7306C64.2433 14.015 64.6439 14.4147 64.9346 14.9301C65.2253 15.4453 65.3706 16.0453 65.3706 16.7295C65.3706 17.4136 65.2253 18.0134 64.9346 18.5287C64.6439 19.0439 64.2433 19.4439 63.7325 19.7282C63.2219 20.0127 62.6551 20.1549 62.0323 20.1549C61.177 20.1549 60.5045 19.8869 60.0145 19.3511V22.4552H58.0714V13.4028H59.9272V14.1695C60.4088 13.5926 61.1105 13.304 62.0323 13.304ZM61.696 18.5721C62.1943 18.5721 62.6033 18.4051 62.9229 18.0712C63.2426 17.7373 63.4026 17.2901 63.4026 16.7295C63.4026 16.1688 63.2426 15.7217 62.9229 15.3877C62.6033 15.0538 62.1943 14.8868 61.696 14.8868C61.1977 14.8868 60.7889 15.0538 60.4692 15.3877C60.1495 15.7217 59.9896 16.1688 59.9896 16.7295C59.9896 17.2901 60.1495 17.7373 60.4692 18.0712C60.7889 18.4051 61.1977 18.5721 61.696 18.5721ZM73.2431 16.7541C73.2431 16.7789 73.2305 16.9521 73.2058 17.2736H68.136C68.2273 17.6858 68.4434 18.0115 68.7836 18.2504C69.1238 18.4896 69.5473 18.6092 70.0542 18.6092C70.4031 18.6092 70.7126 18.5577 70.982 18.4545C71.2521 18.3514 71.5029 18.1887 71.7357 17.9661L72.7696 19.079C72.1386 19.7963 71.2168 20.1549 70.0042 20.1549C69.2485 20.1549 68.5801 20.0086 67.9989 19.7159C67.4174 19.4233 66.9692 19.0172 66.6536 18.4978C66.3381 17.9784 66.1803 17.389 66.1803 16.7295C66.1803 16.0781 66.336 15.4908 66.6473 14.9672C66.9587 14.4438 67.3864 14.0356 67.9304 13.743C68.4741 13.4501 69.0824 13.304 69.7554 13.304C70.411 13.304 71.0047 13.4441 71.5363 13.7243C72.0679 14.0047 72.4854 14.4066 72.7883 14.9301C73.091 15.4537 73.2431 16.0616 73.2431 16.7541ZM69.7674 14.7633C69.3272 14.7633 68.9584 14.8868 68.6589 15.1342C68.36 15.3815 68.1773 15.7195 68.1106 16.1482H71.4116C71.3455 15.7279 71.1628 15.3918 70.8639 15.1403C70.5651 14.8889 70.1996 14.7633 69.7674 14.7633ZM78.9983 16.5934C79.3959 16.717 79.7056 16.9067 79.9256 17.1623C80.1456 17.4178 80.2557 17.7229 80.2557 18.0774C80.2557 18.4978 80.1103 18.8667 79.8195 19.1841C79.5287 19.5016 79.1303 19.7469 78.6234 19.92C78.1176 20.0931 77.5446 20.1797 76.9049 20.1797C76.382 20.1797 75.8671 20.1261 75.3609 20.0189C74.8539 19.9118 74.3843 19.7509 73.9528 19.5367L74.4757 18.1887C75.1821 18.5267 75.9625 18.6957 76.8175 18.6957C77.2744 18.6957 77.634 18.6277 77.8954 18.4917C78.1569 18.3557 78.2876 18.1638 78.2876 17.9165C78.2876 17.7022 78.1962 17.5395 78.0134 17.4281C77.8307 17.3168 77.5653 17.2613 77.2164 17.2613H75.8464V16.0616H77.0424C77.3825 16.0616 77.6439 16.0081 77.8267 15.9008C78.0095 15.7938 78.1008 15.637 78.1008 15.431C78.1008 15.2165 77.9868 15.0516 77.758 14.9363C77.5299 14.8208 77.2038 14.7633 76.7802 14.7633C76.1326 14.7633 75.4269 14.9156 74.6625 15.2208L74.1896 13.8851C75.1194 13.4812 76.0245 13.2793 76.9049 13.2793C77.5112 13.2793 78.0528 13.3534 78.5304 13.5017C79.0077 13.6502 79.3834 13.8666 79.6576 14.151C79.9319 14.4354 80.0694 14.7671 80.0694 15.1466C80.0694 15.4599 79.9728 15.7423 79.7826 15.9937C79.5916 16.2452 79.3291 16.445 78.9983 16.5934ZM88.3775 13.4028L85.3496 20.4641C85.0431 21.2309 84.6628 21.7708 84.2109 22.0842C83.7575 22.3975 83.2121 22.5541 82.5724 22.5541C82.2235 22.5541 81.8785 22.5005 81.5382 22.3932C81.1987 22.2862 80.9197 22.1377 80.7044 21.9481L81.414 20.5755C81.5641 20.7075 81.7362 20.8103 81.9311 20.8847C82.126 20.9588 82.3186 20.9958 82.5103 20.9958C82.7759 20.9958 82.992 20.932 83.1579 20.8043C83.3245 20.6763 83.4738 20.4641 83.6066 20.1674L83.6309 20.1055L80.7288 13.4028H82.7343L84.6156 17.9165L86.508 13.4028H88.3775ZM95.2656 13.4028V20.056H93.3214V14.9857H91.2043L91.1422 16.1606C91.1084 17.0344 91.0259 17.7601 90.8931 18.337C90.7603 18.9142 90.5442 19.3676 90.2455 19.6975C89.9469 20.0271 89.5312 20.1921 89 20.1921C88.7178 20.1921 88.3815 20.1425 87.9909 20.0436L88.0907 18.4608C88.2235 18.4772 88.3186 18.4855 88.3775 18.4855C88.6675 18.4855 88.8852 18.3802 89.0306 18.1701C89.176 17.9599 89.2734 17.6921 89.3237 17.3663C89.374 17.0406 89.4102 16.61 89.4361 16.0741L89.5351 13.4028H95.2656ZM100.758 15.5298C101.63 15.5382 102.299 15.7339 102.764 16.1172C103.229 16.5006 103.461 17.0427 103.461 17.7435C103.461 18.4772 103.202 19.0481 102.683 19.4563C102.163 19.8642 101.435 20.0683 100.496 20.0683L97.1336 20.056V13.4028H99.0637V15.5298H100.758ZM100.323 18.6957C100.696 18.704 100.982 18.6256 101.182 18.4608C101.381 18.2958 101.481 18.0484 101.481 17.7188C101.481 17.3972 101.383 17.1623 101.189 17.0138C100.993 16.8655 100.704 16.787 100.323 16.7789L99.0637 16.7664V18.6957H100.323ZM109.689 14.9857H107.422V20.056H105.492V14.9857H103.225V13.4028H109.689V14.9857ZM113.326 13.304C114.364 13.304 115.161 13.5492 115.718 14.0398C116.274 14.5303 116.552 15.2702 116.552 16.2595V20.056H114.734V19.2275C114.369 19.8457 113.688 20.1549 112.691 20.1549C112.177 20.1549 111.73 20.0683 111.352 19.8952C110.974 19.7221 110.686 19.483 110.486 19.1779C110.287 18.8729 110.188 18.5267 110.188 18.1392C110.188 17.5209 110.423 17.0344 110.891 16.6798C111.361 16.3254 112.085 16.1482 113.065 16.1482H114.61C114.61 15.7279 114.481 15.404 114.224 15.1775C113.966 14.9506 113.58 14.8374 113.065 14.8374C112.708 14.8374 112.357 14.893 112.012 15.0044C111.667 15.1155 111.375 15.2661 111.134 15.4556L110.437 14.1078C110.801 13.8521 111.24 13.6542 111.751 13.5142C112.261 13.374 112.786 13.304 113.326 13.304ZM113.177 18.8566C113.509 18.8566 113.804 18.7802 114.061 18.6277C114.319 18.4752 114.501 18.2504 114.61 17.9537V17.2736H113.277C112.479 17.2736 112.081 17.5332 112.081 18.0527C112.081 18.3001 112.178 18.4956 112.373 18.6402C112.569 18.7844 112.837 18.8566 113.177 18.8566ZM123.583 14.9857H121.61V20.056H119.678V14.9857H117.412V13.4028H124.17L123.583 14.9857Z" fill="white"/>
</g>
<defs>
<clipPath id="clip0_260_1241">
<rect width="131" height="30" fill="white"/>
</clipPath>
</defs>
</svg>
